<?xml version="1.0" encoding="utf-8"?>
<svg viewBox="0 0 52.23 52.11" xmlns="http://www.w3.org/2000/svg">
  <g>
    <g>
      <path d="M31.54 2.27a7.77 7.77 0 0 0-13.24 5 7.8 7.8 0 0 1 6 2.23zM27.8 42.62a7.8 7.8 0 0 0 6 2.23 7.77 7.77 0 0 1-13.24 5z" style="fill: rgb(0, 108, 40);"/>
      <path d="M24.33 9.48c7 6.88 11.42 11.43 18.36 18.35a7.83 7.83 0 0 1 0 11L50 31.67a7.77 7.77 0 0 0 0-11c-7-7-11.45-11.47-18.42-18.42zM2.27 31.53a7.76 7.76 0 0 1 0-11l7.24-7.24a7.82 7.82 0 0 0 0 11L27.8 42.62l-7.18 7.25c-7-7-11.39-11.37-18.34-18.34z" style="fill: rgb(0, 184, 68);"/>
      <path d="M13.31 20.49a7.76 7.76 0 0 1 0-11l7.24-7.24a7.83 7.83 0 0 0 0 11L38.8 31.56a7.83 7.83 0 0 1 0 11l-7.24 7.24a7.83 7.83 0 0 0 0-11z" style="fill: rgb(74, 216, 90);"/>
    </g>
  </g>
</svg>